<svg width="200" height="200" viewBox="0 0 200 200" fill="none" xmlns="http://www.w3.org/2000/svg">
<g id="shopping-cart 1">
<path id="Vector" d="M23.1497 153.461C23.1497 115.033 3.24414 88.6444 3.24414 70.1277C3.24414 51.6111 13.8886 12.7222 99.0719 12.7222C184.255 12.7222 196.755 65.0388 196.755 85.4055C196.761 180.778 23.1497 221.517 23.1497 153.461Z" fill="#EFEFEF"/>
<path id="Vector_2" d="M29.8604 12.5H35.4159V23.6111H29.8604V12.5Z" fill="#A4AFC1"/>
<path id="Vector_3" d="M11.8057 29.1666H22.9168V34.7222H11.8057V29.1666Z" fill="#A4AFC1"/>
<path id="Vector_4" d="M147.556 81.9443C155 81.9443 160.333 89.111 158.167 96.2777L149.167 126.055C148.056 131.111 143.556 134.722 138.333 134.722H79.8334C74.5557 134.722 70.0557 131.055 68.9445 125.944L59.0557 81.9443H147.556Z" fill="#F4F4F5"/>
<path id="Vector_5" d="M160.873 71.9833L144.206 88.65C143.201 89.6556 141.812 90.2778 140.279 90.2778C138.729 90.2778 137.329 89.6445 136.323 88.6222L112.923 66.1333C110.945 64.1278 109.729 61.3722 109.729 58.3333V40.2778C109.729 38.7444 110.973 37.5 112.506 37.5H130.562C133.601 37.5 136.356 38.7167 138.362 40.6944L160.851 64.0944C161.873 65.1 162.506 66.5056 162.506 68.05C162.501 69.5889 161.879 70.9778 160.873 71.9833Z" fill="#E9672B"/>
<path id="Vector_6" d="M81.4445 125.944L71.5557 81.9443H59.0557L68.9445 125.944C70.0557 131.055 74.5557 134.722 79.8334 134.722H92.3334C87.0557 134.722 82.5557 131.055 81.4445 125.944Z" fill="#D5DBE1"/>
<path id="Vector_7" d="M125.417 66.1333C123.439 64.1222 122.223 61.3722 122.223 58.3333V40.2778C122.223 38.7444 123.467 37.5 125 37.5H112.5C110.967 37.5 109.723 38.7444 109.723 40.2778V58.3333C109.723 61.3722 110.939 64.1222 112.917 66.1333L136.317 88.6222C137.323 89.6445 138.728 90.2778 140.273 90.2778C141.806 90.2778 143.195 89.6556 144.2 88.65L146.478 86.3722L125.417 66.1333Z" fill="#DE5212"/>
<path id="Vector_8" d="M138.333 138.889H79.833C72.5663 138.889 66.4163 133.928 64.8775 126.833L51.9886 69.4112C51.2775 66.1501 48.4775 63.889 45.1663 63.889H33.333V55.5557H45.1663C52.433 55.5557 58.583 60.5168 60.1219 67.6112L73.0052 125.028C73.7163 128.289 76.5219 130.55 79.833 130.55H138.333C141.566 130.55 144.411 128.283 145.094 125.161L151.566 96.3501L159.7 98.1779L153.227 126.967C151.722 133.867 145.455 138.889 138.333 138.889Z" fill="#1D1F1F"/>
<path id="Vector_9" d="M59.7227 77.7778H101.389V86.1112H59.7227V77.7778Z" fill="#1D1F1F"/>
<path id="Vector_10" d="M86.1107 166.667C90.713 166.667 94.444 162.936 94.444 158.333C94.444 153.731 90.713 150 86.1107 150C81.5083 150 77.7773 153.731 77.7773 158.333C77.7773 162.936 81.5083 166.667 86.1107 166.667Z" fill="#1D1F1F"/>
<path id="Vector_11" d="M130.556 166.667C135.158 166.667 138.889 162.936 138.889 158.333C138.889 153.731 135.158 150 130.556 150C125.954 150 122.223 153.731 122.223 158.333C122.223 162.936 125.954 166.667 130.556 166.667Z" fill="#1D1F1F"/>
<path id="Vector_12" d="M140.278 94.4444C137.645 94.4444 135.189 93.411 133.35 91.5388L110.033 69.1388C107.111 66.1777 105.556 62.3666 105.556 58.3333V40.2777C105.556 36.4499 108.672 33.3333 112.5 33.3333H130.556C134.6 33.3333 138.406 34.8944 141.278 37.7333L163.85 61.2166C165.633 62.9721 166.667 65.4333 166.667 68.0555C166.667 70.6499 165.656 73.0944 163.817 74.9277L147.15 91.5944C145.322 93.4332 142.878 94.4444 140.278 94.4444ZM113.889 41.6666V58.3333C113.889 60.1666 114.6 61.8999 115.883 63.211L139.206 85.6166C139.683 86.0888 140.95 86.011 141.25 85.711L157.922 69.0444C158.072 68.8944 158.328 68.561 158.328 68.061C158.328 67.5555 158.067 67.2221 157.917 67.0666L135.345 43.5833C134.122 42.3721 132.389 41.6666 130.556 41.6666H113.889Z" fill="#1D1F1F"/>
</g>
</svg>
